<svg width="82" height="82" viewBox="0 0 82 82" fill="none" xmlns="http://www.w3.org/2000/svg">
<path d="M36.5 5.59808C39.2846 3.99038 42.7154 3.99038 45.5 5.59808L69.409 19.4019C72.1936 21.0096 73.909 23.9808 73.909 27.1962V54.8038C73.909 58.0192 72.1936 60.9904 69.409 62.5981L45.5 76.4019C42.7154 78.0096 39.2846 78.0096 36.5 76.4019L12.591 62.5981C9.80642 60.9904 8.09103 58.0192 8.09103 54.8038V27.1962C8.09103 23.9808 9.80642 21.0096 12.591 19.4019L36.5 5.59808Z" fill="#00EEFF"/>
<path d="M37 13.0207C39.1658 11.7703 41.8342 11.7703 44 13.0207L63.4138 24.2293C65.5796 25.4797 66.9138 27.7906 66.9138 30.2915V52.7085C66.9138 55.2094 65.5796 57.5203 63.4138 58.7707L44 69.9793C41.8342 71.2297 39.1658 71.2297 37 69.9793L17.5862 58.7707C15.4204 57.5203 14.0862 55.2094 14.0862 52.7085V30.2915C14.0862 27.7906 15.4204 25.4797 17.5862 24.2293L37 13.0207Z" fill="white"/>
<path d="M38 25.4863C39.547 24.5932 41.453 24.5932 43 25.4863L53.1554 31.3496C54.7024 32.2428 55.6554 33.8934 55.6554 35.6797V47.4062C55.6554 49.1925 54.7024 50.8432 53.1554 51.7363L43 57.5996C41.453 58.4928 39.547 58.4928 38 57.5996L27.8446 51.7363C26.2976 50.8432 25.3446 49.1925 25.3446 47.4062V35.6797C25.3446 33.8934 26.2976 32.2428 27.8446 31.3496L38 25.4863Z" fill="black"/>
<path d="M55.5498 37.2329L55.3945 37.1284L48.6943 32.6343L48.6504 32.605V7.53955L48.7998 7.62549L55.5 11.4722L55.5498 11.5005V37.2329Z" fill="black" stroke="black" stroke-width="0.2"/>
<path d="M39.5 32.5774C40.1188 32.2201 40.8812 32.2201 41.5 32.5774L47.7272 36.1726C48.346 36.5299 48.7272 37.1902 48.7272 37.9047V45.0953C48.7272 45.8098 48.346 46.4701 47.7272 46.8274L41.5 50.4226C40.8812 50.7799 40.1188 50.7799 39.5 50.4226L33.2728 46.8274C32.654 46.4701 32.2728 45.8098 32.2728 45.0953V37.9047C32.2728 37.1902 32.654 36.5299 33.2728 36.1726L39.5 32.5774Z" fill="white"/>
</svg>
